<?xml version="1.0" standalone="no"?>
<!DOCTYPE svg PUBLIC "-//W3C//DTD SVG 20010904//EN"
 "http://www.w3.org/TR/2001/REC-SVG-20010904/DTD/svg10.dtd">
<svg version="1.0" xmlns="http://www.w3.org/2000/svg"
 width="490.000000pt" height="980.000000pt" viewBox="0 0 490.000000 980.000000"
 preserveAspectRatio="xMidYMid meet">
<metadata>
Created by potrace 1.15, written by Peter Selinger 2001-2017
</metadata>
<g transform="translate(0.000000,980.000000) scale(0.100000,-0.100000)"
fill="#000000" stroke="none">
<path d="M980 9790 c-265 -7 -301 -10 -350 -29 -153 -58 -293 -197 -356 -352
-110 -271 -195 -930 -250 -1949 -21 -383 -25 -1129 -6 -1315 47 -473 121 -796
311 -1355 343 -1008 406 -1208 438 -1385 21 -120 30 -804 14 -1054 -21 -313
-58 -476 -226 -990 -53 -161 -105 -330 -115 -375 -64 -266 28 -570 233 -763
113 -107 253 -182 381 -204 40 -7 521 -13 1432 -16 l1371 -5 114 57 c191 96
291 180 382 321 87 135 127 272 127 434 0 134 -13 188 -140 574 -204 624 -232
796 -234 1471 -1 279 2 361 17 456 37 249 107 487 324 1113 179 518 234 690
298 941 124 489 163 871 151 1480 -20 1044 -150 2289 -266 2561 -60 139 -181
269 -321 344 l-84 45 -1475 1 c-811 1 -1608 -2 -1770 -6z m2610 -410 c267 -6
502 -14 524 -19 46 -11 99 -60 126 -116 76 -158 203 -1131 217 -1662 l6 -233
-2011 0 -2012 0 0 128 c0 378 94 1239 177 1612 29 131 57 194 106 237 31 27
45 32 119 38 233 21 1971 30 2748 15z m904 -2517 c-2 -38 -9 -205 -14 -373
-26 -746 -43 -822 -468 -2085 -305 -905 -307 -915 -307 -1610 0 -493 4 -560
41 -785 24 -142 77 -341 138 -518 30 -86 80 -229 111 -318 63 -183 76 -264 64
-399 -11 -121 -22 -155 -73 -217 -54 -67 -124 -106 -224 -124 -175 -33 -2102
-43 -2487 -13 -209 16 -262 35 -342 123 -72 79 -96 133 -101 232 -7 139 16
238 146 604 172 485 204 660 223 1190 8 230 8 376 0 540 -20 421 -57 572 -331
1355 -400 1147 -459 1437 -460 2258 l0 207 2044 0 2043 0 -3 -67z"/>
</g>
</svg>
