<?xml version="1.0" standalone="no"?>
<!DOCTYPE svg PUBLIC "-//W3C//DTD SVG 20010904//EN"
 "http://www.w3.org/TR/2001/REC-SVG-20010904/DTD/svg10.dtd">
<svg version="1.0" xmlns="http://www.w3.org/2000/svg"
 width="260.000000pt" height="320.000000pt" viewBox="0 0 260.000000 320.000000"
 preserveAspectRatio="xMidYMid meet">
<metadata>
Created by potrace 1.15, written by Peter Selinger 2001-2017
</metadata>
<g transform="translate(0.000000,320.000000) scale(0.100000,-0.100000)"
fill="#000000" stroke="none">
<path d="M1699 2684 c-12 -15 -12 -16 0 -10 9 6 12 5 9 -5 -3 -8 -2 -23 3 -35
4 -12 10 -49 14 -82 l6 -61 -48 -6 c-70 -10 -75 -13 -17 -14 l52 -1 7 -163 c7
-167 7 -173 -40 -432 -8 -44 -26 -143 -39 -221 -14 -77 -28 -148 -32 -157 -3
-9 -2 -17 3 -17 9 0 78 319 120 550 19 103 20 301 4 528 -9 129 -18 155 -42
126z"/>
<path d="M916 2448 c-3 -13 -6 -38 -6 -56 0 -20 -4 -31 -10 -27 -5 3 -10 -3
-10 -15 0 -12 5 -18 10 -15 6 3 10 -1 10 -10 0 -9 -4 -14 -8 -11 -4 2 -7 -44
-6 -102 2 -86 14 -165 62 -407 91 -448 111 -563 123 -713 20 -250 -2 -404 -80
-559 -45 -90 -49 -104 -41 -135 21 -74 80 -98 245 -97 108 0 106 12 -5 23 -91
10 -120 16 -120 27 0 5 8 9 18 9 14 0 15 2 2 10 -8 5 -24 10 -36 10 -14 0 -20
6 -19 20 1 21 44 67 57 62 5 -1 8 1 8 6 0 4 -20 16 -44 27 -32 14 -42 24 -38
37 2 10 9 15 14 12 6 -4 8 1 4 14 -4 13 -2 20 6 19 51 -2 67 4 70 25 2 13 0
36 -5 51 -8 23 -5 32 16 53 14 14 28 21 31 15 14 -21 168 -23 280 -2 60 11
113 18 118 15 9 -6 0 -53 -14 -71 -6 -7 -4 -13 4 -16 7 -2 1 -8 -14 -12 -15
-4 -29 -13 -32 -22 -3 -8 -10 -12 -15 -8 -5 3 -13 0 -17 -6 -5 -9 12 -10 67
-5 41 4 75 8 75 9 1 1 -7 36 -17 77 -29 112 -35 312 -15 490 27 228 29 255 23
250 -7 -7 -43 -266 -52 -377 -6 -65 -11 -85 -28 -100 -30 -26 -64 -27 -70 -2
-5 18 -8 19 -29 8 -13 -6 -26 -17 -30 -23 -8 -12 -48 -17 -48 -6 0 4 -10 7
-22 6 -13 0 -23 5 -24 12 -1 6 -2 19 -3 28 0 8 -5 12 -11 9 -9 -6 -15 8 -11
29 1 5 -4 16 -12 25 -22 26 -32 45 -19 37 7 -4 12 -1 12 8 0 9 5 16 11 16 8 0
8 4 -1 14 -6 8 -18 12 -26 9 -11 -4 -13 2 -8 26 5 24 3 31 -8 31 -21 0 -44 95
-26 106 5 3 1 12 -9 20 -10 7 -13 14 -8 14 6 0 4 4 -4 9 -9 6 -10 14 -3 27 11
22 5 47 -9 38 -11 -6 -11 -6 0 34 6 18 6 30 1 27 -4 -3 -10 2 -14 10 -3 8 -1
15 4 15 6 0 10 12 10 26 0 16 -4 23 -11 18 -7 -4 -9 0 -5 14 4 11 2 23 -3 27
-7 4 -7 14 -1 30 6 15 6 25 0 25 -5 0 -8 9 -7 20 1 11 5 20 9 20 14 0 9 28 -8
44 -8 9 -11 16 -5 16 6 0 11 12 11 26 0 15 -4 23 -10 19 -7 -4 -9 3 -5 22 5
21 4 24 -4 13 -14 -19 -14 -11 0 28 8 22 7 36 -1 52 -9 18 -8 25 7 43 17 19
17 20 1 14 -21 -7 -21 -4 -9 40 8 26 6 35 -6 42 -14 7 -13 10 4 15 12 4 24 14
28 24 5 14 4 15 -6 5 -18 -18 -28 -16 -29 5 -4 83 -8 110 -15 122 -6 10 -4 12
8 7 11 -4 17 -1 17 8 0 8 -3 15 -7 15 -5 0 -8 22 -8 49 0 27 3 44 7 38 5 -8 9
-5 14 8 5 11 3 20 -4 23 -7 2 -12 10 -12 18 0 9 5 12 10 9 6 -3 10 -2 10 4 0
5 -5 11 -11 13 -9 3 -9 10 1 27 10 19 10 25 -1 32 -9 5 26 9 86 10 55 1 129 4
165 8 58 6 50 7 -75 13 -77 4 -151 5 -165 3 -14 -2 -42 -4 -63 -4 -34 -1 -37
-3 -27 -20 5 -11 10 -31 10 -45 0 -16 7 -27 20 -31 11 -3 20 -13 20 -21 0 -13
-2 -13 -16 0 -8 9 -17 16 -18 16 -2 0 -2 -22 -2 -49 1 -27 -3 -47 -7 -44 -5 3
-5 -3 1 -13 6 -13 5 -29 -3 -48 -14 -34 -45 -44 -45 -15 0 11 -7 19 -16 19
-14 0 -15 15 -10 130 l6 130 -34 0 c-26 0 -35 -5 -40 -22z"/>
</g>
</svg>
