<!-- Generated by IcoMoon.io -->
<svg version="1.1" xmlns="http://www.w3.org/2000/svg" width="1024" height="1024" viewBox="0 0 1024 1024">
<title></title>
<g id="icomoon-ignore">
</g>
<path fill="#000" d="M313.453 177.832c-11.334 3.908-25.405 10.944-31.267 15.243-6.253 4.299-23.060 10.944-37.521 14.461-18.76 4.69-25.014 7.817-21.105 10.162 3.127 2.345 3.518 4.299 0.782 5.472-13.289 5.472-57.844 35.566-59.408 39.866-1.173 4.299 1.173 3.908 10.162-0.782 17.197-8.989 17.979-7.817 7.035 6.253-5.081 7.035-12.898 23.060-17.197 35.566l-7.426 22.669 8.989-8.598c10.553-9.771 11.334-8.598 5.472 5.863-4.299 11.334-3.127 12.116 8.208 5.863 7.426-3.908 7.426-3.518 1.563 10.944-3.518 7.817-8.989 17.979-12.898 22.278-6.253 7.035-6.253 7.035 1.954 2.736 11.725-5.863 11.334-6.253 11.725 14.070 0.391 10.553 1.173 25.014 1.563 32.831 0.782 9.38-1.563 17.588-7.426 25.795-11.334 15.634-10.944 19.151 1.173 11.334 12.507-8.208 13.679-7.817 13.679 2.736 0 14.070-10.553 26.186-23.45 26.186-6.253 0-13.679 2.345-16.415 5.472-3.127 2.736-8.989 6.253-13.289 7.817-10.553 3.127-17.588 16.415-18.76 35.957-1.173 12.898-4.69 19.151-20.715 35.176-10.553 10.553-23.060 27.359-27.75 37.13-18.369 37.911-20.324 93.411-4.299 127.023l7.426 15.634-9.771 23.841-9.771 24.232 6.253 42.211c3.518 23.060 8.208 43.774 10.162 46.119 2.736 2.736 3.518 0.782 1.563-5.863-1.563-5.472-4.69-26.577-7.035-46.901-3.908-33.221-3.908-39.084 2.736-55.89 5.081-13.289 8.989-18.369 13.289-17.197 3.518 0.782 5.863 3.518 5.081 6.253-0.391 2.736 0.782 3.908 3.127 2.345 3.908-2.345 16.024 8.208 30.485 27.359 8.208 11.334 8.208 10.944-0.782-7.817-5.472-10.944-10.162-21.496-10.553-23.45-0.391-2.345-3.518-6.253-6.253-8.989-2.736-3.127-4.299-7.035-3.127-8.989 1.563-1.954 0.782-3.518-1.173-3.518-5.863 0-8.989-32.44-3.518-35.957 3.518-2.345 3.127-3.127-0.391-3.127-3.908 0-4.69-3.908-2.736-15.634 1.563-10.162 1.173-15.634-1.563-15.634-7.426 0-5.081 48.855 3.518 73.087l7.817 22.278-13.679-13.289c-21.105-20.324-26.577-39.866-24.623-84.812 1.563-33.221 3.127-41.429 13.679-61.753 19.151-36.739 57.844-68.397 83.249-68.397 31.658 0 89.893 42.211 98.101 71.524 3.518 12.116 5.472 14.461 6.644 8.598 1.173-4.69 5.081 3.127 10.162 21.496 4.69 16.024 13.679 37.13 19.933 46.51 10.553 15.634 11.725 20.324 10.944 44.556-0.782 15.634 1.563 35.957 5.081 48.073 7.426 26.186 7.426 67.615 0 94.192l-5.472 20.715h33.612c18.76 0 36.739-1.954 39.866-3.908 3.908-2.345 4.299-3.908 1.173-3.908-2.736 0-5.081-1.563-5.081-3.518s3.908-2.736 8.989-1.954l8.598 1.954-8.598-6.644c-8.989-6.644-12.116-18.76-5.472-22.669 5.472-3.518 12.507 7.817 9.771 15.243-2.345 5.472-1.173 6.253 4.69 4.299 3.908-1.173 9.771-0.782 12.507 1.173 3.908 2.345 2.345 4.299-6.644 7.426-20.715 7.426-14.070 12.507 15.243 12.507 28.922 0 28.531 0.391 32.831-21.496 1.954-8.598 1.563-10.162-1.173-5.863-3.518 5.081-4.69 5.081-8.989 0.391-2.736-3.127-3.127-4.299-0.782-3.127 2.736 1.563 5.472 0.391 6.644-2.736 2.736-7.426-6.644-10.944-12.507-5.081-3.518 3.518-4.299 3.127-2.345-2.345 1.563-3.518 5.081-6.644 8.208-6.644s5.863-2.345 5.863-5.081c0.782-7.035-1.173-42.602-2.736-50.809-0.391-3.908 0.391-5.863 2.736-4.69 1.954 1.563 2.345 4.299 1.173 6.644-1.954 2.736-0.782 3.127 2.736 0.782 3.127-1.954 6.644-3.518 8.208-3.518 1.173 0 3.908-1.563 5.863-3.518s1.173-2.345-1.563-0.782c-6.644 3.518-6.253 2.736 2.736-16.415 9.771-19.933 9.771-23.841 0.782-13.289-6.253 7.035-8.989 7.426-26.186 4.299-10.162-1.954-19.933-4.299-20.715-5.472-2.736-2.345-12.507 5.863-12.507 10.553 0 1.954 1.954 2.345 4.69 0.782s3.127-1.173 1.563 1.563c-1.563 2.736-6.253 6.644-10.944 8.989-4.299 2.345-7.035 2.736-5.472 0.391 3.127-5.081-7.817-14.070-13.289-10.553-2.736 1.563-5.472-0.782-6.644-5.472-1.173-4.299-3.127-7.426-4.69-6.644-1.173 0.782-5.863-2.345-10.162-6.644s-5.472-6.644-2.736-5.081c2.345 1.563 4.69 0.782 4.69-1.563s2.345-3.127 5.081-1.954c2.345 1.563-0.391-1.954-6.644-7.035-11.725-10.162-12.116-22.278-0.782-22.278 3.127 0 6.253-3.127 7.035-6.644 1.954-8.208-4.299-24.623-9.38-24.623-1.954 0-2.736-1.173-1.954-3.127 1.173-1.563-2.345-8.989-7.426-16.415-7.035-9.771-9.38-11.334-9.38-6.253 0 3.908 3.127 9.771 7.035 12.507 4.69 3.908 5.081 5.081 1.173 5.472-3.127 0-7.817-3.127-10.553-7.035-6.253-7.817-7.035-24.232-1.563-24.232 5.081 0 5.081-7.817 0-15.634-3.127-5.081-4.299-4.69-9.38 1.954-3.518 4.299-5.863 12.116-5.863 17.588-0.391 8.989 0 8.989 6.253-3.127 3.127-7.035 7.035-11.725 8.208-10.944 1.173 1.173 0 4.299-1.954 7.035-2.345 2.736-5.081 11.725-6.644 19.542s-4.69 14.852-7.035 15.634c-2.345 0.782-3.908 6.253-3.908 12.116s-1.173 10.553-2.736 10.553c-1.173 0-2.345-8.598-2.345-19.151s1.173-17.197 2.736-14.852c4.299 7.426 7.817 0 3.908-7.817-2.345-3.908-2.736-13.679-0.782-22.669 1.563-8.598 3.518-12.898 3.908-9.771 1.173 12.116 6.253-8.598 5.472-24.623-0.391-20.324-9.38-50.027-13.679-47.292-1.954 1.173-3.518 0-3.518-2.345s-2.736-10.553-6.253-18.76c-3.908-7.817-7.035-16.415-7.426-18.76-4.299-19.542-10.944-25.795-12.116-12.116 0 2.736-0.782 7.817-0.782 11.725-0.391 3.908-2.736 5.863-5.081 4.299-3.127-1.563-3.127-3.518 0-6.644 5.081-5.081 5.863-12.116 1.173-8.989-1.954 1.173-2.736-6.253-2.345-16.415s1.173-18.369 1.563-18.369c0.391 0 1.173-3.127 1.954-7.035 1.173-5.472-0.391-6.644-5.081-4.69-4.69 1.563-3.908-0.391 2.345-5.863 9.771-8.989 12.116-15.634 2.736-7.817-5.081 4.299-5.472 3.908-3.518-1.173 1.954-5.472 0.782-5.472-7.817-1.563-5.472 2.736-10.162 6.253-10.162 7.817 0 1.954 1.563 2.345 3.908 0.782 1.954-1.173 1.954 2.736-0.391 9.771-6.644 18.369-11.725 9.771-8.989-14.852 2.736-25.795 2.345-25.014 10.944-21.887 5.863 2.345 5.863 2.736-0.391 7.426-8.598 6.253-4.299 12.116 5.472 7.817 3.908-1.954 9.771-3.518 12.898-3.518 3.127-0.391 9.38-6.253 14.070-13.289 5.081-7.035 9.771-12.898 10.944-12.507 7.817 0.391 9.771-0.782 12.116-7.817 1.173-4.299 3.518-7.426 5.081-7.035s12.507-0.782 24.232-2.736c11.725-1.954 24.623-3.127 28.14-2.345 5.472 0.782 5.863-0.391 1.954-8.989-2.736-5.081-5.472-7.817-7.035-5.863-1.173 2.345-11.334 1.563-26.186-1.954-25.405-5.863-30.485-4.299-15.634 5.081 8.598 5.472 8.598 5.472 1.173 8.598-12.116 4.69-17.588 3.908-17.588-1.563 0-7.035-14.070-19.933-18.369-17.197-4.69 3.127-5.863-14.852-1.563-26.186 2.345-5.081 2.736-12.898 1.563-17.588-1.563-6.253-3.518-7.035-8.989-4.299-3.518 1.954-8.208 2.345-9.771 0.782s-1.563 2.736-0.391 9.38c4.69 20.324-10.944 49.637-19.151 36.739-1.563-2.345-4.299-2.736-6.644-1.563-2.736 1.954-2.345 4.299 1.954 7.426 4.299 2.736 5.081 6.253 2.345 10.162-2.345 3.908-3.518 3.908-3.518 0.391 0-2.345-1.563-4.69-3.908-4.69-1.954 0-2.736 4.69-1.563 10.553 1.954 10.553 1.563 10.944-15.243 11.334-15.634 0-17.197-0.782-15.243-7.817 1.173-4.299 2.736-5.863 3.908-3.127 1.563 5.472 16.415 6.253 16.415 0.782 0-2.345-2.736-3.908-5.863-3.908s-5.863-1.563-5.863-3.908c0-1.954 2.345-2.736 5.081-1.563 2.736 0.782 8.989-3.908 14.070-10.553 7.426-10.162 8.208-13.679 4.69-20.715-2.736-5.081-3.908-5.472-2.345-1.173 0.782 3.908-0.782 7.817-3.908 8.989-3.127 1.563-4.69 3.908-3.518 5.863s-0.782 2.345-4.299 1.173c-7.817-3.127-5.081-11.725 3.127-10.162 4.299 0.782 5.863-0.782 4.69-4.299-1.173-2.736 2.345-8.989 8.208-14.070 9.771-8.598 9.771-8.989 2.736-17.197-7.035-8.598-7.035-8.598 0.782-2.345 4.299 3.127 11.334 5.472 15.634 4.299 6.253-1.563 5.863-2.345-3.908-6.644-8.989-3.908-9.771-5.081-3.127-4.299 4.299 0.391 10.944 3.127 14.461 5.863s6.253 3.518 6.253 1.954c0-1.954 7.035-6.644 15.634-10.162 16.024-7.035 48.855-6.253 56.281 1.173 5.472 5.081 17.979 4.299 17.979-0.782 0-3.127 5.081-3.908 14.852-2.345 14.852 2.736 32.049 0 32.049-4.69 0-1.173-7.817-2.736-17.197-3.127s-24.623-3.908-34.003-7.426c-9.38-3.518-28.531-9.38-42.602-12.898-21.496-5.863-24.232-7.426-17.979-10.944 7.035-3.908 7.035-4.299-1.173-7.035-6.644-1.954-7.817-3.908-4.299-7.817s2.345-5.472-4.299-6.644c-4.69-0.782-8.989-4.299-9.771-7.817-0.391-3.908 1.173-5.863 4.299-4.69 2.736 1.173 6.253 0.391 7.817-1.954 1.563-2.736-2.345-4.299-10.162-4.299-12.116 0-12.507-0.391-5.081-5.863 3.908-3.127 5.863-5.863 3.908-5.863-8.598 0 12.898-12.116 36.348-19.933 19.542-6.644 30.876-7.817 52.763-6.644 42.602 3.127 57.063 10.944 82.858 44.556 12.507 16.024 22.669 33.221 23.060 37.911 0.391 6.253 3.127 8.598 10.162 8.598 5.863 0 9.38-2.345 9.38-5.863 0-3.127-3.127-5.472-6.644-5.472-3.518 0.391-7.426-1.954-8.598-4.69-3.518-9.38 14.852-3.518 19.542 5.863 3.518 6.644 5.081 7.426 6.644 3.127 1.173-3.127 0-7.817-2.345-10.162-3.127-3.127-2.345-4.299 3.127-4.299s2.736-4.299-10.944-17.979c-10.162-9.771-18.369-18.76-18.369-19.542s3.127-1.563 7.035-1.563c13.679 0-4.299-7.817-18.76-7.817-10.553 0-12.116-1.173-7.817-3.908s1.954-3.127-7.035-1.563c-8.598 1.954-14.852 0.782-19.542-3.518-19.933-17.588-84.812-23.45-121.16-10.553zM240.757 427.188c-2.736 10.162-7.035 22.669-9.771 26.968-5.863 11.725-5.472 14.852 1.563 8.989 5.081-4.299 5.863-2.736 5.863 10.944 0 8.598 1.173 18.76 2.736 22.669 1.954 5.081 1.173 6.253-3.127 4.299-3.127-1.173-15.243-6.253-26.968-10.944-11.725-5.081-22.278-9.771-23.060-10.162-3.908-2.736 50.418-75.823 54.327-73.478 1.954 1.173 0.782 10.553-1.563 20.715z"></path>
<path fill="#000" d="M838.351 187.994c-8.598 2.736-20.324 8.208-26.186 11.334-8.208 4.69-14.070 5.472-24.623 2.345-11.725-3.127-15.243-2.345-28.14 7.035-8.208 5.863-23.45 13.679-34.003 17.197s-21.105 9.38-23.45 12.507c-3.908 5.472-6.253 5.472-21.496 0-34.394-12.116-91.456-4.69-121.942 15.243-8.208 5.472-19.151 10.162-23.841 10.162-10.944 0-21.496 6.253-17.588 10.162 1.563 1.563 5.081 0.782 7.426-1.563 2.736-2.736 6.644-4.69 8.989-4.69 1.954 0 0.782 2.736-3.127 5.472-4.69 3.518-5.472 6.253-3.127 8.208 2.345 1.173 8.598-2.736 14.070-8.989 15.634-18.369 53.545-33.221 89.893-35.176 31.267-1.563 61.362 5.081 60.971 12.898 0 2.345-5.863 4.69-12.898 5.863s-20.324 5.863-29.313 10.553c-8.989 5.081-18.76 8.989-21.887 8.989s-8.598 3.518-12.507 7.817c-5.472 6.253-12.116 7.817-29.704 7.817-19.933 0-23.841 1.173-29.313 9.771-3.518 5.472-5.472 13.289-4.299 17.588s0 7.817-2.345 7.817c-2.736 0-8.598 1.173-13.289 2.345-6.644 1.954-8.989 0.782-8.989-3.518 0-3.127 2.345-6.644 5.081-7.817 3.127-1.173 1.954-4.69-4.299-11.725-10.553-11.334-6.644-16.024 9.771-12.116 8.989 1.954 10.162 1.563 6.253-2.345-2.736-2.736-8.989-5.863-13.679-6.253-15.243-2.345-20.715-3.518-25.405-6.644s-16.024-1.954-42.211 3.518c-6.253 1.563-17.197 2.736-24.232 3.127-6.644 0.391-11.334 1.563-10.553 3.127 0.782 1.173-0.782 3.127-3.127 4.299-2.736 0.782 1.173 1.563 8.208 1.954 7.426 0 15.634-0.782 17.588-2.345 5.863-3.518 29.704-3.908 27.75-0.391-1.173 1.563-0.391 7.035 1.563 12.116 3.908 10.553 0.782 18.369-14.852 36.348-8.208 9.38-8.598 10.162-1.173 3.908 7.035-5.863 15.243-7.426 37.911-7.426 15.634-0.391 28.531 1.173 28.14 3.127s3.518 4.69 8.989 6.253c8.208 2.345 8.989 3.127 3.127 5.863-3.908 1.563-6.253 4.299-5.081 6.253 1.173 1.563-3.908 11.334-11.725 21.105-7.426 10.162-13.679 22.278-13.679 26.968 0 11.725 119.206 191.121 129.368 194.638 10.162 3.908 22.669 0.782 51.591-11.725 19.151-8.208 23.45-8.989 26.577-4.299 2.345 3.908 1.563 5.863-2.736 6.644-3.127 0.782-5.081 4.299-3.908 7.817 1.954 7.035 3.518 28.14 2.736 43.774-0.391 8.989-0.782 8.989-7.426-3.908-9.771-17.979-15.243-18.76-13.289-1.563 1.173 10.162 0.391 13.679-2.736 11.725-2.345-1.563-4.299-6.644-4.69-11.334-0.391-7.817-7.035 28.922-13.289 72.696-1.173 10.162-3.908 17.588-5.863 16.415s0 5.863 4.69 16.024c9.38 21.496 7.817 42.602-3.908 58.626-7.035 10.162-7.035 10.944 0 17.979 8.598 8.598 8.989 28.531 1.173 42.211-3.127 5.472-5.472 10.944-5.863 12.507 0 1.563 16.024-2.736 35.566-9.771 37.911-12.898 42.602-17.588 42.602-41.82 0-6.253 1.954-12.507 4.299-13.679 2.345-1.563 3.127-5.081 1.954-7.817-0.782-2.736 1.563-8.208 5.863-12.116 7.426-6.644 7.426-6.644 0-11.725-5.863-4.299-7.035-8.989-5.863-23.060 1.173-12.507-2.345-33.221-11.725-67.615-7.426-27.359-14.852-59.017-16.415-70.742-1.954-18.369-1.563-20.715 3.908-18.76 7.426 3.127 7.817 0 0.782-12.507-5.081-9.38-4.69-10.162 11.725-21.105 18.369-12.116 46.119-41.429 54.327-57.844 5.081-8.989 4.299-11.725-4.299-24.623-5.472-8.208-9.38-15.243-8.598-15.634 18.369-12.116 26.968-15.243 44.165-15.634 15.634-0.391 23.45-3.127 34.003-10.944 7.426-5.863 18.369-11.334 24.232-12.507 5.472-1.563 14.461-3.127 19.542-4.299 7.035-1.563 9.771-5.472 11.725-15.243 2.345-11.725 5.472-14.852 27.75-25.014 35.957-17.197 52.763-46.119 52.763-91.456 0-12.898 1.954-26.577 4.299-30.876 6.644-13.289-11.725-37.13-32.44-42.602-9.38-2.736-32.049-10.553-50.809-17.979s-36.348-13.289-39.084-13.289c-2.736 0.391 8.598 5.863 25.014 12.507 16.806 6.644 29.313 13.679 28.14 15.243-1.173 1.954 4.69 3.518 12.898 3.518 19.542 0 40.256 10.944 48.855 25.405 6.644 12.116 6.644 12.116-7.817 33.221-32.049 46.901-34.003 52.763-6.253 19.542l14.461-17.588-2.345 23.060c-3.908 41.038-29.313 74.26-62.144 82.467l-9.771 2.736-1.954-32.831c-1.173-23.45-4.299-37.13-10.944-50.027-14.852-29.704-47.292-66.052-71.524-81.295-14.461-8.598-21.105-15.243-18.76-17.588 1.954-1.954 15.634-7.817 30.485-12.507 14.461-5.081 23.060-8.989 18.76-9.38-4.299 0-14.852 2.736-23.45 5.863zM760.183 309.154c22.669 27.75 48.855 75.823 48.855 89.893 0 9.38-3.518 15.634-15.634 26.577-17.979 16.024-22.669 16.806-35.957 6.644-12.507-10.162-73.478-100.055-73.478-108.653 0-13.289 12.898-23.060 37.13-28.922 21.105-5.081 24.232-3.908 39.084 14.461zM662.473 303.682c19.542 27.75 96.928 146.565 98.882 151.646 1.563 4.69 0.391 4.299-5.863-1.173-7.426-6.644-12.898-5.472-12.898 2.736 0 2.345 1.563 1.954 3.518-0.782 2.345-4.299 5.472-2.736 12.116 5.863 5.081 5.863 7.817 7.817 6.644 3.908-4.69-12.507 3.127-6.644 14.461 10.944 9.771 16.024 10.553 18.76 6.253 29.704-12.898 30.485-91.847 84.031-130.931 88.721l-16.806 1.563-60.971-92.238c-33.612-51.2-60.971-96.147-60.971-100.446 0-10.553 48.464-60.189 55.108-56.281 2.736 1.954 3.908 1.563 2.345-0.782-3.127-5.081 29.704-29.704 55.89-41.82s25.405-12.116 33.221-1.563z"></path>
<path fill="#000" d="M732.043 305.637c-3.518 1.173-1.954 5.863 5.472 15.243 7.817 10.553 8.989 14.852 5.472 18.369-3.908 3.518-5.472 3.127-8.598-2.345-2.345-3.518-7.817-11.334-12.507-16.806-8.598-10.162-8.989-10.162-17.979-2.736l-9.38 7.817 25.405 36.739c14.070 20.324 28.531 42.602 32.049 49.246 8.598 16.806 21.496 17.197 35.176 0.782 5.472-6.644 10.162-14.852 10.162-18.76 0-8.598-32.831-66.052-45.728-79.34-10.944-11.334-11.725-11.725-19.542-8.208z"></path>
<path fill="#000" d="M508.873 716.018c-2.736 1.173-7.426 6.644-10.553 12.898-3.127 5.863-11.725 18.76-19.542 28.922-11.725 15.634-13.289 19.542-9.38 26.577 5.081 9.771 1.954 35.176-7.035 50.027-5.472 9.771-5.472 11.334 0.782 21.105 4.69 6.644 5.863 14.070 4.299 21.887l-1.954 11.725h166.107l0.782-9.771c0.391-5.081-1.173-10.553-3.127-11.725-5.081-3.127-5.081-9.771 0-9.771 2.345 0 3.908 3.127 3.908 6.644 0 5.081 1.173 5.472 4.69 1.954 3.127-3.127 3.127-5.863-0.391-9.771-3.127-4.299-3.518-8.598-0.391-16.415 2.345-5.863 3.127-11.725 1.954-13.679-1.173-1.563 0.782-3.908 3.518-5.081 3.127-1.173 7.817-6.253 10.553-11.334 4.299-7.817 4.299-8.598-1.173-3.908-4.299 3.518-7.035 3.908-8.989 0.782-2.736-4.69-9.771-1.563-9.771 4.299 0 2.345 1.563 3.127 3.518 1.563 1.954-1.173 4.69-0.391 5.863 1.563 4.299 6.644-9.38 1.954-18.369-6.644-5.081-4.69-10.162-7.426-11.725-6.253-1.563 1.563 0.391 5.472 4.299 8.598 5.472 4.69 5.081 4.69-3.127-0.391-5.472-3.127-9.38-7.035-9.38-8.989 0.391-1.954-1.954-7.035-4.69-11.334-8.208-11.334-7.035-18.76 2.345-15.634 9.771 3.127 9.771-0.782 0-15.634-4.299-6.644-7.817-9.771-7.817-7.426 0 1.954 1.954 5.863 4.69 8.598 6.644 6.644-1.563 5.863-10.944-1.173-8.598-6.644-14.852-7.817-11.334-1.954 3.908 6.253-0.391 4.299-6.253-2.736-4.69-5.863-4.69-6.253 0.391-3.127s5.081 2.736 0.391-3.127c-3.127-3.908-6.253-5.863-7.426-5.081-0.782 1.173-5.472-3.518-10.162-10.553s-11.334-12.507-14.852-12.507c-3.518 0-7.817-1.563-9.38-3.127-3.127-3.127-12.507-3.127-20.324 0z"></path>
</svg>
